<svg width="16" height="16" viewBox="0 0 16 16" fill="none" xmlns="http://www.w3.org/2000/svg">
<g id="Size=Small">
<path id="Ellipse" d="M1.5 8C1.5 6.27609 2.18482 4.62279 3.40381 3.40381C4.62279 2.18482 6.27609 1.5 8 1.5C9.72391 1.5 11.3772 2.18482 12.5962 3.40381C13.8152 4.62279 14.5 6.27609 14.5 8C14.5 9.72391 13.8152 11.3772 12.5962 12.5962C11.3772 13.8152 9.72391 14.5 8 14.5C6.27609 14.5 4.62279 13.8152 3.40381 12.5962C2.18482 11.3772 1.5 9.72391 1.5 8L1.5 8Z" stroke="#CFCFCF" stroke-width="3"/>
<path id="Ellipse_2" d="M1.5 8C1.5 6.62733 1.93456 5.2899 2.74139 4.17939C3.54822 3.06889 4.68591 2.24231 5.99139 1.81813C7.29687 1.39396 8.70313 1.39396 10.0086 1.81813C11.3141 2.24231 12.4518 3.06889 13.2586 4.1794" stroke="#E31F26" stroke-width="3"/>
</g>
</svg>
