<svg xmlns="http://www.w3.org/2000/svg" width="88" height="40" viewBox="0 0 88 40" fill="none">
    <g clip-path="url(#clip0_403_17686)">
        <path d="M0.00877291 30.6719V30.5684C-0.0121072 30.497 -0.0138703 30.4211 0.00367277 30.3487C0.0212159 30.2764 0.0574079 30.2103 0.108389 30.1575C0.15937 30.1048 0.223229 30.0673 0.29316 30.0492C0.363091 30.031 0.43647 30.0329 0.505479 30.0545H5.11037C5.17944 30.0322 5.25307 30.0299 5.3233 30.0478C5.39353 30.0657 5.4577 30.1032 5.50885 30.1561C5.56 30.209 5.59619 30.2754 5.6135 30.3481C5.63081 30.4208 5.62859 30.497 5.60708 30.5684V30.6719C5.62373 30.8166 5.58877 30.9625 5.50877 31.0824C5.39244 31.1656 5.2509 31.2024 5.11037 31.1859H3.39949V36.9555C3.42405 37.0293 3.42825 37.1086 3.41161 37.1847C3.39497 37.2608 3.35815 37.3306 3.3053 37.3862C3.25244 37.4418 3.18564 37.4811 3.1124 37.4996C3.03916 37.5181 2.96239 37.5151 2.89071 37.4909H2.73549C2.59217 37.5086 2.44752 37.4718 2.32847 37.3874C2.24585 37.264 2.21022 37.1134 2.22843 36.9644V31.1859H0.503755C0.363744 31.2028 0.222611 31.1659 0.107078 31.0824C0.0261772 30.963 -0.00886524 30.8166 0.00877291 30.6719Z" fill="#58595B"/>
        <path d="M10.3224 34.0537C10.3224 34.0841 10.3224 34.2518 10.3 34.5552C10.3125 34.6323 10.3061 34.7114 10.2813 34.7852C10.2565 34.859 10.2141 34.9252 10.1581 34.9776C10.1021 35.0301 10.0343 35.0671 9.9608 35.0853C9.88734 35.1034 9.81064 35.1022 9.73777 35.0817H6.66784V35.3333C6.66784 35.7527 6.7903 36.0471 7.03693 36.2256C7.28355 36.4041 7.68713 36.4933 8.2442 36.4933C8.72833 36.4946 9.2108 36.4347 9.68086 36.3148C9.85333 36.2702 9.9775 36.2756 10.0396 36.3327C10.1168 36.4436 10.1502 36.5808 10.1327 36.7164V36.8645C10.1471 36.9978 10.1179 37.1322 10.0499 37.2464C9.94433 37.3386 9.81697 37.4002 9.68086 37.4248C9.212 37.5514 8.72869 37.6115 8.2442 37.6033C7.30942 37.6033 6.623 37.407 6.18493 37.0144C5.74687 36.6218 5.52783 36.0031 5.52783 35.1584V34.1626C5.52783 32.5089 6.34533 31.682 7.98033 31.682C8.74608 31.682 9.3273 31.8819 9.72398 32.2816C10.1241 32.6885 10.3224 33.2703 10.3224 34.0537ZM6.66784 33.836V34.1216H9.25486V33.836C9.25486 33.0829 8.82082 32.7058 7.95273 32.7046C7.08464 32.7034 6.65635 33.0805 6.66784 33.836Z" fill="#58595B"/>
        <path d="M11.2949 35.2065V34.0876C11.2949 33.319 11.514 32.7242 11.952 32.303C12.3901 31.8818 13.0225 31.6742 13.8492 31.6802C14.1402 31.6791 14.4301 31.7175 14.7115 31.7944C14.8461 31.814 14.9714 31.8763 15.0702 31.9729C15.1369 32.0922 15.1659 32.2301 15.153 32.3672V32.5154C15.153 32.7135 15.1203 32.8384 15.0547 32.8919C14.9892 32.9455 14.8667 32.9455 14.6891 32.8919C14.4249 32.8056 14.1484 32.767 13.8716 32.7777C13.3427 32.7777 12.9713 32.877 12.7574 33.0757C12.5436 33.2738 12.4367 33.6111 12.4367 34.0912V35.1619C12.4367 35.658 12.5516 36.0031 12.7816 36.197C13.0116 36.3909 13.4036 36.4879 13.9578 36.4879C14.2437 36.4798 14.5282 36.4452 14.8081 36.3844C14.9806 36.3469 15.1047 36.354 15.1668 36.4076C15.2289 36.4611 15.2617 36.586 15.2617 36.7734V36.9108C15.2742 37.0479 15.2407 37.1853 15.1668 37.2999C15.0633 37.3954 14.935 37.4574 14.7977 37.4783C14.5053 37.5555 14.2045 37.5938 13.9026 37.5926C12.1642 37.6021 11.2949 36.8067 11.2949 35.2065Z" fill="#58595B"/>
        <path d="M16.1757 36.9662V30.0063C16.1542 29.9348 16.1519 29.8586 16.1692 29.786C16.1866 29.7133 16.2228 29.6469 16.2739 29.594C16.3251 29.5411 16.3892 29.5036 16.4594 29.4857C16.5297 29.4678 16.6033 29.4701 16.6724 29.4923H16.8155C16.8845 29.4707 16.9579 29.4689 17.0278 29.4871C17.0978 29.5052 17.1616 29.5427 17.2126 29.5954C17.2636 29.6482 17.2998 29.7142 17.3173 29.7866C17.3349 29.859 17.3331 29.9349 17.3122 30.0063V32.3959C17.6572 31.92 18.228 31.682 19.0248 31.682C19.6492 31.682 20.1321 31.848 20.4701 32.1799C20.8082 32.5119 20.9875 33.0044 20.9875 33.6594V36.9609C21.0049 37.1064 20.9693 37.2534 20.8875 37.3731C20.772 37.4567 20.6308 37.4935 20.4908 37.4766H20.3477C20.2784 37.4982 20.2048 37.4999 20.1347 37.4817C20.0646 37.4634 20.0006 37.4258 19.9495 37.3729C19.8983 37.32 19.862 37.2538 19.8444 37.1812C19.8267 37.1087 19.8284 37.0325 19.8492 36.9609V33.8468C19.8492 33.4732 19.7573 33.2031 19.5733 33.0365C19.3893 32.87 19.0915 32.7861 18.6799 32.7849C18.22 32.7849 17.8751 32.8991 17.6451 33.1276C17.4151 33.356 17.3048 33.7218 17.314 34.2251V36.9662C17.3314 37.1117 17.2957 37.2587 17.2139 37.3785C17.0984 37.462 16.9573 37.4989 16.8172 37.482H16.6741C16.6049 37.5038 16.5313 37.5056 16.4612 37.4874C16.391 37.4692 16.327 37.4316 16.2759 37.3786C16.2249 37.3256 16.1887 37.2592 16.1714 37.1866C16.154 37.1139 16.1561 37.0377 16.1774 36.9662H16.1757Z" fill="#58595B"/>
        <path d="M23.3123 33.9038V36.9662C23.3297 37.1117 23.2941 37.2587 23.2123 37.3785C23.0967 37.462 22.9556 37.4988 22.8156 37.482H22.6707C22.6016 37.5031 22.5282 37.5045 22.4584 37.4861C22.3885 37.4676 22.3248 37.43 22.2739 37.3772C22.223 37.3243 22.1869 37.2583 22.1693 37.1859C22.1517 37.1136 22.1534 37.0377 22.174 36.9662V33.9038C22.174 32.4262 22.9789 31.6874 24.5886 31.6874C25.413 31.6874 26.0183 31.8658 26.4047 32.2228C26.791 32.5797 26.9847 33.1377 26.9859 33.8967V36.9591C27.0067 37.0307 27.0084 37.1069 26.9907 37.1794C26.9731 37.252 26.9368 37.3182 26.8856 37.3711C26.8345 37.424 26.7705 37.4616 26.7004 37.4799C26.6303 37.4981 26.5567 37.4964 26.4874 37.4748H26.3443C26.2043 37.4917 26.0631 37.4549 25.9476 37.3713C25.8658 37.2516 25.8302 37.1046 25.8476 36.9591V33.9038C25.8476 33.4934 25.7556 33.2043 25.5716 33.0365C25.3877 32.8688 25.06 32.7849 24.5886 32.7849C24.1114 32.7849 23.7803 32.8688 23.5952 33.0365C23.41 33.2043 23.3158 33.4934 23.3123 33.9038Z" fill="#58595B"/>
        <path d="M30.5976 37.6068C29.7283 37.6068 29.0879 37.4052 28.6763 37.0019C28.2624 36.5968 28.0571 35.9775 28.0571 35.1387V34.1626C28.0571 32.5172 28.9039 31.6945 30.5976 31.6945C31.4588 31.6945 32.0911 31.8985 32.4947 32.3066C32.8983 32.7147 33.103 33.3333 33.1087 34.1626V35.1459C33.1087 35.9537 32.8966 36.567 32.4723 36.9858C32.048 37.4046 31.4231 37.6116 30.5976 37.6068ZM31.9773 35.1387V34.1626C31.9773 33.6611 31.8756 33.3059 31.6738 33.1007C31.472 32.8955 31.1115 32.792 30.5976 32.792C30.0836 32.792 29.7094 32.8955 29.5041 33.1007C29.2989 33.3059 29.1954 33.6611 29.1954 34.1626V35.1459C29.1954 35.642 29.2972 35.9918 29.5041 36.197C29.7111 36.4022 30.075 36.5057 30.5976 36.5057C31.1202 36.5057 31.4806 36.404 31.679 36.2024C31.8773 36.0007 31.9773 35.642 31.9773 35.1387Z" fill="#58595B"/>
        <path d="M34.2072 35.8811V29.992C34.1861 29.9204 34.1843 29.8442 34.2019 29.7716C34.2195 29.699 34.2559 29.6328 34.3071 29.58C34.3583 29.5271 34.4225 29.4897 34.4927 29.4718C34.5629 29.4538 34.6365 29.456 34.7056 29.478H34.8488C34.9178 29.4564 34.9912 29.4546 35.0611 29.4727C35.131 29.4909 35.1949 29.5283 35.2459 29.5811C35.2968 29.6338 35.333 29.6999 35.3506 29.7723C35.3681 29.8446 35.3664 29.9205 35.3455 29.992V35.6473C35.3277 35.8643 35.3695 36.0821 35.4662 36.2755C35.5125 36.3379 35.5733 36.387 35.643 36.4182C35.7128 36.4494 35.789 36.4617 35.8646 36.454C35.9851 36.438 36.1072 36.4664 36.2095 36.5343C36.2708 36.649 36.2956 36.7808 36.2803 36.9108V37.0251C36.2943 37.1557 36.2632 37.2872 36.1923 37.3963C36.0873 37.4817 35.9612 37.5349 35.8284 37.5497C35.7774 37.5612 35.7252 37.5654 35.6732 37.5622C35.4739 37.5744 35.2743 37.5425 35.0879 37.4686C34.9014 37.3948 34.7323 37.2807 34.5918 37.1339C34.3354 36.8555 34.2072 36.4379 34.2072 35.8811Z" fill="#58595B"/>
        <path d="M39.3759 37.6068C38.5067 37.6068 37.8662 37.4052 37.4546 37.0019C37.0424 36.5968 36.8354 35.9775 36.8354 35.1387V34.1626C36.8354 32.5172 37.6823 31.6945 39.3759 31.6945C40.2371 31.6945 40.8695 31.8985 41.2731 32.3066C41.6766 32.7147 41.8813 33.3333 41.887 34.1626V35.1459C41.887 35.9537 41.6755 36.567 41.2523 36.9858C40.8292 37.4046 40.2037 37.6116 39.3759 37.6068ZM40.7556 35.1387V34.1626C40.7556 33.6611 40.6556 33.3059 40.4521 33.1007C40.2486 32.8955 39.8916 32.792 39.3759 32.792C38.8602 32.792 38.4877 32.8955 38.2825 33.1007C38.0772 33.3059 37.972 33.6539 37.972 34.1626V35.1459C37.972 35.642 38.0738 35.9918 38.2807 36.197C38.4877 36.4022 38.8516 36.5057 39.3742 36.5057C39.8968 36.5057 40.2572 36.404 40.4555 36.2024C40.6539 36.0007 40.7556 35.642 40.7556 35.1387Z" fill="#58595B"/>
        <path d="M47.6476 33.711V33.8056C47.6476 35.1786 46.8559 35.8644 45.2727 35.8633C44.9293 35.8485 44.5853 35.8712 44.2465 35.9311C44.1794 35.9431 44.1188 35.98 44.076 36.0348C44.0331 36.0896 44.011 36.1587 44.0137 36.2291C44.0137 36.3576 44.0947 36.445 44.2568 36.4914C44.5923 36.5506 44.9327 36.5733 45.2727 36.5592C46.2224 36.5592 46.8812 36.6782 47.2492 36.9162C47.6096 37.1535 47.7907 37.5747 47.7907 38.185C47.7907 38.8322 47.6068 39.2891 47.2388 39.5556C46.8709 39.8221 46.2155 39.9553 45.2727 39.9553C44.3023 39.9553 43.6325 39.8298 43.2634 39.5788C42.9013 39.3272 42.7219 38.9346 42.7219 38.4027C42.7072 38.1732 42.754 37.944 42.8571 37.7403C42.9603 37.5365 43.1158 37.3662 43.3066 37.2481C43.1724 37.1676 43.0623 37.0504 42.9884 36.9093C42.9144 36.7683 42.8795 36.6089 42.8875 36.4486C42.8875 35.9382 43.1784 35.6104 43.7601 35.4653C43.1634 35.169 42.865 34.6128 42.865 33.7967V33.695C42.8509 33.4123 42.901 33.1301 43.0112 32.871C43.1214 32.612 43.2887 32.3832 43.4997 32.203C43.924 31.8461 44.515 31.6677 45.2727 31.6677C45.6299 31.6595 45.9854 31.72 46.3213 31.8461L46.9508 31.2858C47.033 31.1905 47.1445 31.1274 47.2664 31.1073C47.3855 31.1259 47.4936 31.1895 47.57 31.2858L47.6683 31.3893C47.762 31.4671 47.8266 31.5762 47.8511 31.698C47.8351 31.8204 47.7731 31.9313 47.6786 32.0067L47.225 32.51C47.3725 32.6686 47.4863 32.8574 47.5591 33.0642C47.6319 33.2711 47.662 33.4914 47.6476 33.711ZM45.2727 37.5729C44.9369 37.5807 44.601 37.5652 44.2672 37.5265C43.9947 37.6455 43.8584 37.8894 43.8584 38.2582C43.8447 38.3731 43.8649 38.4896 43.9163 38.5925C43.9677 38.6954 44.0479 38.7797 44.1465 38.8346C44.3379 38.931 44.7139 38.9774 45.2727 38.9774C45.8315 38.9774 46.1747 38.9292 46.3661 38.8293C46.5576 38.7293 46.6524 38.533 46.6524 38.235C46.6524 37.937 46.561 37.7621 46.3765 37.6871C46.1919 37.6122 45.8315 37.5729 45.2727 37.5729ZM46.5093 33.8056V33.7039C46.5202 33.5624 46.4995 33.4201 46.4486 33.2883C46.3978 33.1564 46.3182 33.0385 46.2161 32.9437C46.0218 32.7795 45.7073 32.6974 45.2727 32.6974C44.4264 32.6974 44.0033 33.0329 44.0033 33.7039V33.8056C44.0033 34.1625 44.0999 34.4374 44.2948 34.5998C44.4897 34.7622 44.8122 34.846 45.2727 34.846C45.7332 34.846 46.0402 34.7639 46.2282 34.5998C46.4161 34.4356 46.5093 34.1786 46.5093 33.8056Z" fill="#58595B"/>
        <path d="M49.6899 32.328L50.5626 36.0078C50.5874 36.1722 50.6561 36.3261 50.7609 36.4522C50.8758 36.5393 51.0175 36.58 51.1593 36.5664C51.2198 36.5699 51.2804 36.5606 51.3373 36.5392C51.3942 36.5177 51.4464 36.4844 51.4905 36.4415C51.5899 36.3172 51.6548 36.1673 51.6785 36.0078L52.5063 32.328C52.5253 32.1735 52.5911 32.0291 52.6943 31.9157C52.8232 31.835 52.9738 31.7994 53.1237 31.814H53.2686C53.4739 31.814 53.6032 31.8479 53.6549 31.9157C53.7067 31.9835 53.7067 32.1227 53.6549 32.328L52.4597 37.4819C52.2769 38.2814 51.9952 38.8828 51.6147 39.2861C51.209 39.7064 50.6697 39.9601 50.0969 40C49.9839 40.0218 49.8671 39.9975 49.771 39.9322C49.6749 39.8378 49.6138 39.7114 49.5985 39.5752L49.5657 39.4271C49.5459 39.3751 49.5366 39.3195 49.5384 39.2636C49.5401 39.2077 49.553 39.1528 49.5761 39.1023C49.6551 39.0198 49.7622 38.9724 49.8745 38.9703C50.2109 38.9319 50.5256 38.7794 50.7696 38.5366C51.0275 38.2412 51.2096 37.8834 51.299 37.4962C51.1346 37.5629 50.9577 37.5904 50.7816 37.5765C50.6246 37.5902 50.4665 37.5693 50.3179 37.5152C50.1692 37.461 50.0334 37.3749 49.9193 37.2624C49.7313 37.0518 49.5744 36.6699 49.4398 36.1131L48.5119 32.3315C48.4602 32.1257 48.4602 31.9883 48.5119 31.9193C48.5637 31.8515 48.6844 31.8176 48.8983 31.8176H49.0414C49.192 31.8027 49.3432 31.8383 49.4726 31.9193C49.5827 32.0301 49.6583 32.1724 49.6899 32.328Z" fill="#58595B"/>
        <path d="M57.1541 36.7735V36.595C57.1358 36.455 57.1718 36.3133 57.2541 36.2006C57.3196 36.1435 57.4386 36.1453 57.6076 36.2006C58.1861 36.3898 58.7895 36.4849 59.3961 36.4826C59.9043 36.4826 60.2688 36.4231 60.4896 36.3041C60.5969 36.2457 60.6854 36.1562 60.7442 36.0465C60.803 35.9368 60.8296 35.8118 60.8207 35.6867C60.8255 35.5862 60.8104 35.4857 60.7763 35.3915C60.7422 35.2973 60.6898 35.2113 60.6224 35.1388C60.3938 34.9222 60.1414 34.7342 59.8704 34.5784L58.3475 33.6272C57.6117 33.1704 57.2437 32.5499 57.2437 31.7659C57.2437 31.1556 57.4421 30.7023 57.8388 30.406C58.2354 30.1098 58.8506 29.9611 59.6842 29.9599C60.2041 29.9542 60.7218 30.0313 61.2191 30.1883C61.3612 30.2198 61.4938 30.2866 61.6055 30.3828C61.6756 30.4942 61.7067 30.6271 61.6934 30.7594V30.9503C61.6934 31.1556 61.6658 31.2841 61.6106 31.334C61.5554 31.384 61.4382 31.3804 61.2519 31.334C60.745 31.1682 60.2157 31.0874 59.6842 31.0949C59.358 31.0729 59.0313 31.1278 58.7287 31.2555C58.6333 31.307 58.5546 31.3864 58.5024 31.4838C58.4503 31.5812 58.427 31.6924 58.4355 31.8034C58.4308 31.9682 58.4814 32.1296 58.5786 32.2602C58.7394 32.434 58.9256 32.5803 59.1305 32.6939L60.7 33.6879C61.0934 33.9113 61.4389 34.2149 61.7158 34.5802C61.9249 34.9102 62.0292 35.2995 62.0142 35.6938C62.0142 36.9799 61.134 37.6235 59.3737 37.6247C58.7715 37.6327 58.1717 37.5442 57.5956 37.3624C57.4621 37.3298 57.3387 37.2629 57.2368 37.1679C57.1666 37.05 57.1373 36.9109 57.1541 36.7735Z" fill="#58595B"/>
        <path d="M62.9629 35.2065V34.0876C62.9629 33.319 63.1819 32.7242 63.62 32.303C64.0581 31.8818 64.6904 31.6742 65.5171 31.6802C65.8082 31.6793 66.0981 31.7177 66.3795 31.7944C66.5139 31.8144 66.6391 31.8767 66.7382 31.9729C66.8049 32.0922 66.8339 32.2301 66.821 32.3672V32.5154C66.821 32.7135 66.7882 32.8384 66.721 32.8919C66.6537 32.9455 66.533 32.9455 66.3571 32.8919C66.0929 32.8056 65.8164 32.767 65.5396 32.7777C65.0095 32.7777 64.6375 32.877 64.4237 33.0757C64.2098 33.2738 64.1046 33.6111 64.1046 34.0912V35.1619C64.1046 35.658 64.2196 36.0031 64.4496 36.197C64.6795 36.3909 65.0716 36.4879 65.6258 36.4879C65.9116 36.4798 66.1962 36.4452 66.4761 36.3844C66.5342 36.3625 66.596 36.3533 66.6578 36.3573C66.7195 36.3613 66.7797 36.3784 66.8348 36.4076C66.8969 36.4611 66.9279 36.586 66.9279 36.7734V36.9108C66.94 37.0477 66.9071 37.1847 66.8348 37.2999C66.731 37.395 66.6028 37.457 66.4657 37.4783C66.1732 37.5554 65.8724 37.5937 65.5706 37.5926C63.8333 37.6021 62.964 36.8067 62.9629 35.2065Z" fill="#58595B"/>
        <path d="M67.8437 36.9662V30.0062C67.8229 29.9348 67.8211 29.8589 67.8386 29.7865C67.8562 29.7142 67.8924 29.6481 67.9434 29.5954C67.9943 29.5426 68.0582 29.5052 68.1281 29.487C68.1981 29.4688 68.2714 29.4707 68.3404 29.4923H68.4853C68.5543 29.4707 68.6277 29.4688 68.6976 29.487C68.7676 29.5052 68.8314 29.5426 68.8824 29.5954C68.9334 29.6481 68.9696 29.7142 68.9871 29.7865C69.0047 29.8589 69.0029 29.9348 68.982 30.0062V32.3958C69.327 31.9199 69.8972 31.682 70.6929 31.682C71.3184 31.682 71.8007 31.8479 72.1399 32.1799C72.4791 32.5118 72.6481 33.005 72.647 33.6593V36.9608C72.6683 37.0323 72.6703 37.1085 72.653 37.1811C72.6356 37.2538 72.5995 37.3202 72.5484 37.3732C72.4974 37.4262 72.4333 37.4638 72.3632 37.482C72.2931 37.5002 72.2194 37.4984 72.1503 37.4766H72.0071C71.865 37.4958 71.7212 37.4595 71.6035 37.3748C71.5218 37.2551 71.4861 37.1081 71.5035 36.9626V33.8467C71.5035 33.4731 71.4115 33.2031 71.2276 33.0365C71.0436 32.8699 70.7452 32.7861 70.3324 32.7849C69.8725 32.7849 69.5305 32.8991 69.3063 33.1275C69.0821 33.3559 68.9717 33.7218 68.9751 34.225V36.9662C68.9958 37.0376 68.9974 37.1135 68.9798 37.1859C68.9622 37.2582 68.9261 37.3243 68.8752 37.3771C68.8243 37.43 68.7606 37.4676 68.6908 37.486C68.6209 37.5045 68.5475 37.5031 68.4784 37.4819H68.3335C68.1935 37.4988 68.0524 37.462 67.9369 37.3784C67.8575 37.2577 67.8243 37.1108 67.8437 36.9662Z" fill="#58595B"/>
        <path d="M76.2704 37.6068C75.4012 37.6068 74.7602 37.4052 74.3474 37.0019C73.9352 36.5968 73.73 35.9775 73.73 35.1387V34.1626C73.73 32.5172 74.5768 31.6945 76.2704 31.6945C77.1316 31.6945 77.764 31.8985 78.1676 32.3066C78.5711 32.7147 78.7752 33.3333 78.7798 34.1626V35.1459C78.7798 35.9537 78.5683 36.567 78.1452 36.9858C77.722 37.4046 77.0971 37.6116 76.2704 37.6068ZM77.6502 35.1387V34.1626C77.6502 33.6611 77.5484 33.3059 77.3466 33.1007C77.1448 32.8955 76.7844 32.792 76.2704 32.792C75.7565 32.792 75.3822 32.8955 75.177 33.1007C74.9717 33.3059 74.8665 33.6611 74.8665 34.1626V35.1459C74.8665 35.642 74.97 35.9924 75.177 36.197C75.3839 36.4016 75.7484 36.5045 76.2704 36.5057C76.7936 36.5057 77.154 36.4046 77.3518 36.2024C77.5496 36.0001 77.649 35.6456 77.6502 35.1387Z" fill="#58595B"/>
        <path d="M82.2963 37.6068C81.4271 37.6068 80.7861 37.4052 80.3733 37.0019C79.9611 36.5968 79.7559 35.9775 79.7559 35.1387V34.1626C79.7559 32.5172 80.6027 31.6945 82.2963 31.6945C83.1575 31.6945 83.7899 31.8985 84.1935 32.3066C84.597 32.7147 84.8011 33.3333 84.8057 34.1626V35.1459C84.8057 35.9537 84.5942 36.567 84.171 36.9858C83.7479 37.4046 83.123 37.6116 82.2963 37.6068ZM83.676 35.1387V34.1626C83.676 33.6611 83.5743 33.3059 83.3725 33.1007C83.1707 32.8955 82.8103 32.792 82.2963 32.792C81.7824 32.792 81.4081 32.8955 81.2029 33.1007C80.9976 33.3059 80.8924 33.6611 80.8924 34.1626V35.1459C80.8924 35.642 80.9959 35.9924 81.2029 36.197C81.4098 36.4016 81.7743 36.5045 82.2963 36.5057C82.8137 36.5057 83.1793 36.404 83.3777 36.2024C83.576 36.0007 83.676 35.642 83.676 35.1387Z" fill="#58595B"/>
        <path d="M85.9184 35.8811V29.992C85.8976 29.9205 85.8958 29.8446 85.9133 29.7723C85.9309 29.6999 85.9671 29.6338 86.0181 29.5811C86.069 29.5283 86.1329 29.4909 86.2028 29.4727C86.2728 29.4546 86.3461 29.4564 86.4151 29.478H86.5583C86.6274 29.456 86.701 29.4538 86.7712 29.4718C86.8414 29.4897 86.9056 29.5271 86.9568 29.58C87.008 29.6328 87.0444 29.699 87.062 29.7716C87.0796 29.8442 87.0778 29.9204 87.0567 29.992V35.6473C87.0389 35.8643 87.0808 36.0821 87.1775 36.2755C87.2237 36.3379 87.2846 36.387 87.3543 36.4182C87.424 36.4494 87.5003 36.4617 87.5759 36.454C87.6964 36.438 87.8185 36.4664 87.9208 36.5343C87.9837 36.6484 88.0091 36.7805 87.9932 36.9108V37.0251C88.0073 37.1557 87.9761 37.2872 87.9053 37.3963C87.7996 37.4817 87.673 37.5348 87.5396 37.5497C87.4893 37.5614 87.4376 37.5656 87.3861 37.5622C87.1866 37.5743 86.9868 37.5424 86.8001 37.4685C86.6134 37.3947 86.4439 37.2806 86.303 37.1339C86.0466 36.8555 85.9184 36.4379 85.9184 35.8811Z" fill="#58595B"/>
        <path d="M16.0826 8.10742C13.8094 8.10742 12.2089 8.87301 11.3207 10.3846C10.4325 8.8748 8.82512 8.10742 6.56062 8.10742C2.20753 8.10742 0.00683594 10.2918 0.00683594 14.6016V23.4032C0.00683594 24.0332 0.110318 24.4472 0.325903 24.6721C0.541487 24.8969 0.943338 25.0022 1.55215 25.0022H1.96607C2.57488 25.0022 2.97501 24.8934 3.19059 24.6721C3.40618 24.4508 3.50966 24.0332 3.50966 23.4032V14.6034C3.50966 13.4594 3.73387 12.6492 4.17538 12.1942C4.6169 11.7391 5.41888 11.5053 6.56752 11.5053C7.71615 11.5053 8.51295 11.7373 8.9424 12.1924C9.37184 12.6474 9.5926 13.4594 9.5926 14.6034V23.405C9.5926 24.035 9.69608 24.4508 9.91167 24.6739C10.1273 24.8969 10.5274 25.004 11.1379 25.004H11.4553C12.0641 25.004 12.4642 24.8951 12.6798 24.6739C12.8954 24.4526 13.0023 24.035 13.0023 23.405V14.6034C13.0023 13.4808 13.2351 12.676 13.6922 12.2102C14.1492 11.7444 14.9598 11.4964 16.086 11.4964C17.2122 11.4964 18.0315 11.7284 18.4626 12.1834C18.8938 12.6385 19.1094 13.4487 19.1094 14.5944V23.3961C19.1094 24.026 19.2146 24.4419 19.4302 24.6649C19.6458 24.888 20.0476 24.9951 20.6564 24.9951H21.0703C21.6809 24.9951 22.081 24.8862 22.2966 24.6631C22.5122 24.4401 22.6174 24.026 22.6174 23.3961V14.6034C22.6174 12.4333 22.0758 10.7897 21.01 9.7207C19.9441 8.65172 18.2833 8.10742 16.0826 8.10742Z" fill="#2C2B2B"/>
        <path d="M27.6033 1.97554C27.3221 1.9733 27.0434 2.03038 26.7842 2.14329C26.5251 2.25621 26.2908 2.42259 26.0959 2.63227C25.8901 2.8266 25.7266 3.06387 25.616 3.32843C25.5054 3.59298 25.4503 3.87881 25.4543 4.16703C25.4521 4.45884 25.5076 4.74805 25.6173 5.01688C25.7271 5.28571 25.8887 5.5285 26.0924 5.73033C26.4954 6.13648 27.0373 6.36105 27.5998 6.35494C27.8746 6.35993 28.1476 6.30697 28.402 6.19928C28.6564 6.09159 28.8869 5.93142 29.0796 5.72855C29.2833 5.52671 29.445 5.28393 29.5547 5.01509C29.6644 4.74626 29.7199 4.45706 29.7177 4.16524C29.7025 3.589 29.4745 3.0407 29.0805 2.63308C28.6866 2.22546 28.1567 1.98951 27.5998 1.97375L27.6033 1.97554Z" fill="#2C2B2B"/>
        <path d="M27.7969 8.33228H27.3847C26.7759 8.33228 26.3757 8.43935 26.1601 8.66243C25.9446 8.8855 25.8394 9.30131 25.8394 9.93128V23.405C25.8394 24.035 25.9446 24.4508 26.1601 24.6721C26.3757 24.8934 26.7759 25.004 27.3847 25.004H27.7969C28.4091 25.004 28.8092 24.8951 29.0231 24.6721C29.237 24.449 29.3439 24.035 29.3439 23.405V9.93128C29.3439 9.30131 29.2387 8.88729 29.0231 8.66243C28.8075 8.43757 28.404 8.33228 27.7969 8.33228Z" fill="#2C2B2B"/>
        <path d="M39.6002 8.10742C34.9315 8.10742 32.5635 10.2918 32.5635 14.6016V23.4032C32.5635 24.0332 32.6687 24.4472 32.8825 24.6721C33.0964 24.8969 33.5 25.0022 34.1105 25.0022H34.5227C35.1315 25.0022 35.5316 24.8934 35.7472 24.6721C35.9628 24.4508 36.068 24.0332 36.068 23.4032V14.6034C36.068 13.4612 36.3215 12.6528 36.8217 12.1995C37.3219 11.7462 38.2601 11.5053 39.6002 11.5053C40.9402 11.5053 41.8422 11.7391 42.3476 12.1995C42.8529 12.6599 43.1013 13.463 43.1013 14.6034V23.405C43.1013 24.035 43.2065 24.449 43.4221 24.6739C43.6376 24.8987 44.036 25.004 44.6466 25.004H45.0605C45.6693 25.004 46.0694 24.8951 46.285 24.6739C46.5006 24.4526 46.6058 24.035 46.6058 23.405V14.6034C46.6058 12.4101 46.0315 10.7611 44.9001 9.70107C43.7687 8.64102 41.9888 8.10742 39.6002 8.10742Z" fill="#2C2B2B"/>
        <path d="M63.5837 0.33198C63.3681 0.108905 62.9662 0.00183105 62.3592 0.00183105H61.978C61.3675 0.00183105 60.9673 0.108905 60.7518 0.33198C60.5362 0.555055 60.431 0.970867 60.431 1.60083V9.98845C59.5134 8.73744 57.9957 8.10748 55.9089 8.10748C51.4247 8.10748 49.1567 10.5577 49.1567 15.3886V18.2137C49.1567 22.9571 51.642 25.3628 56.5418 25.3628C58.9098 25.3628 60.7483 24.7507 62.0039 23.5407C63.2594 22.3307 63.901 20.5372 63.901 18.2137V1.59905C63.9027 0.969083 63.7993 0.55684 63.5837 0.33198ZM60.431 15.3226V18.1458C60.431 19.5289 60.1447 20.5158 59.579 21.0797C59.0133 21.6437 57.9819 21.9328 56.5177 21.9328C55.0534 21.9328 54.0341 21.6526 53.4891 21.0976C52.9441 20.5426 52.6682 19.5503 52.6682 18.1458V15.3262C52.6682 13.9199 52.9493 12.9223 53.5047 12.3584C54.06 11.7945 55.0758 11.5054 56.5177 11.5054C57.9595 11.5054 59.0098 11.7927 59.579 12.3584C60.1481 12.9241 60.431 13.9217 60.431 15.3262V15.3226Z" fill="#2C2B2B"/>
        <path d="M78.771 16.4362L83.4708 24.1421C83.5224 24.226 83.5513 24.3229 83.5544 24.4224C83.5575 24.5219 83.5346 24.6204 83.4882 24.7076C83.4418 24.7949 83.3736 24.8676 83.2908 24.9181C83.2079 24.9687 83.1134 24.9953 83.0172 24.9951H82.3428C82.1392 24.9954 81.9388 24.9423 81.7603 24.8409C81.5817 24.7395 81.4309 24.593 81.3218 24.4151L76.5945 16.711C76.4855 16.5323 76.4277 16.3253 76.4277 16.114C76.4277 15.9028 76.4855 15.6958 76.5945 15.5171L85.7646 0.579996C85.8737 0.40206 86.0245 0.255571 86.203 0.154163C86.3815 0.0527549 86.582 -0.000275901 86.7856 1.07945e-06H87.46C87.5561 5.66071e-05 87.6505 0.0267604 87.7332 0.0773393C87.816 0.127918 87.8842 0.200525 87.9307 0.287605C87.9772 0.374685 88.0002 0.47306 87.9975 0.572499C87.9948 0.671938 87.9664 0.768809 87.9153 0.853039L78.7745 15.8437C78.7203 15.9322 78.6912 16.0346 78.6906 16.1394C78.69 16.2442 78.7178 16.347 78.771 16.4362Z" fill="#E31F26"/>
        <path d="M74.3266 9.4655C74.3218 9.67756 74.2548 9.88309 74.1345 10.0548C74.0141 10.2265 73.8462 10.3564 73.6529 10.427C73.4596 10.4977 73.2502 10.5059 73.0523 10.4505C72.8544 10.3951 72.6775 10.2787 72.545 10.1169C72.5434 10.1159 72.5416 10.1154 72.5398 10.1154C72.538 10.1154 72.5362 10.1159 72.5347 10.1169L66.857 0.863739C66.8055 0.779606 66.7767 0.682714 66.7737 0.583161C66.7707 0.483608 66.7935 0.38504 66.8399 0.297733C66.8862 0.210425 66.9543 0.137575 67.0371 0.0867757C67.1199 0.0359768 67.2143 0.00908793 67.3106 0.00891463H68.0781C68.2826 0.00841416 68.484 0.0617034 68.6632 0.163779C68.8423 0.265855 68.9935 0.41337 69.1025 0.592479L74.2179 8.98009C74.2942 9.12942 74.3316 9.29669 74.3266 9.4655Z" fill="#E31F26"/>
        <path d="M76.134 19.586C76.1634 19.7255 76.1656 19.8696 76.1405 20.01C76.1153 20.1504 76.0632 20.2841 75.9874 20.4033L73.5452 24.4115C73.4364 24.5904 73.2855 24.7378 73.1066 24.8398C72.9277 24.9419 72.7268 24.9953 72.5225 24.9951H71.7533C71.6571 24.9953 71.5626 24.9687 71.4797 24.9182C71.3968 24.8676 71.3286 24.7949 71.2823 24.7077C71.2359 24.6204 71.213 24.5219 71.2161 24.4224C71.2192 24.3229 71.248 24.2261 71.2997 24.1421C72.2845 22.5359 74.3144 19.2309 74.3317 19.2005C74.4461 19.0382 74.6032 18.9135 74.7843 18.8412C74.9654 18.7688 75.1627 18.752 75.3528 18.7926C75.5429 18.8333 75.7177 18.9297 75.8562 19.0704C75.9947 19.2111 76.0912 19.3901 76.134 19.586Z" fill="#E31F26"/>
        <path d="M83.0381 1.18259e-06C83.1343 -0.0002043 83.2288 0.0263717 83.3117 0.0769473C83.3946 0.127523 83.4628 0.200234 83.5092 0.287461C83.5555 0.374687 83.5784 0.473218 83.5753 0.572725C83.5723 0.672232 83.5434 0.769053 83.4917 0.853039C82.5069 2.45918 80.477 5.76425 80.4597 5.79459C80.3633 5.93094 80.2364 6.04101 80.0898 6.11531C79.9431 6.18961 79.7813 6.22592 79.6181 6.22111C79.3784 6.20975 79.15 6.11259 78.972 5.94625C78.7939 5.7799 78.6772 5.55471 78.6419 5.30918C78.6111 5.0588 78.6686 4.80531 78.804 4.59534L81.2462 0.590703C81.355 0.41185 81.5059 0.264495 81.6848 0.162433C81.8637 0.0603715 82.0647 0.00694026 82.2689 0.00713838L83.0381 1.18259e-06Z" fill="#E31F26"/>
        <path d="M78.176 9.51191L69.0266 24.4151C68.9175 24.593 68.7667 24.7395 68.5882 24.8409C68.4097 24.9423 68.2093 24.9954 68.0056 24.9951H67.3313C67.2351 24.995 67.1407 24.9683 67.058 24.9177C66.9752 24.8672 66.907 24.7946 66.8605 24.7075C66.814 24.6204 66.791 24.522 66.7937 24.4226C66.7964 24.3232 66.8248 24.2263 66.8759 24.1421L75.996 9.19247C76.0501 9.10345 76.0788 9.00046 76.0788 8.89533C76.0788 8.79021 76.0501 8.68721 75.996 8.5982L71.2722 0.853039C71.221 0.768809 71.1926 0.671938 71.1899 0.572499C71.1872 0.47306 71.2102 0.374685 71.2567 0.287605C71.3032 0.200525 71.3714 0.127918 71.4542 0.0773393C71.537 0.0267604 71.6313 5.66071e-05 71.7275 1.07945e-06H72.4018C72.6055 -0.000275901 72.8059 0.0527549 72.9844 0.154163C73.1629 0.255571 73.3137 0.40206 73.4228 0.579996L78.176 8.31801C78.2858 8.49641 78.344 8.7035 78.344 8.91496C78.344 9.12643 78.2858 9.33351 78.176 9.51191Z" fill="#E31F26"/>
        <path d="M87.4325 24.9951H86.665C86.4608 24.9953 86.2598 24.9419 86.0809 24.8399C85.902 24.7378 85.7511 24.5904 85.6423 24.4116L80.5252 16.024C80.4535 15.8799 80.4162 15.7202 80.4165 15.5582C80.4167 15.3439 80.4803 15.1348 80.5989 14.9592C80.7175 14.7835 80.8853 14.6497 81.0797 14.5758C81.274 14.5019 81.4857 14.4914 81.686 14.5458C81.8862 14.6002 82.0656 14.7169 82.1998 14.88L87.8913 24.1457C87.9423 24.23 87.9704 24.3269 87.9728 24.4264C87.9752 24.5258 87.9517 24.6241 87.9048 24.7109C87.8579 24.7977 87.7894 24.8699 87.7063 24.9199C87.6232 24.9699 87.5286 24.9959 87.4325 24.9951Z" fill="#E31F26"/>
    </g>
    <defs>
        <clipPath id="clip0_403_17686">
            <rect width="88" height="40" fill="white"/>
        </clipPath>
    </defs>
</svg>